<mxfile host="app.diagrams.net" agent="Mozilla/5.0 (Windows NT 10.0; Win64; x64) AppleWebKit/537.36 (KHTML, like Gecko) Chrome/136.0.0.0 Safari/537.36" version="27.0.5" pages="3">
  <diagram id="vfVdRJ-nQ8jURo-Xbm66" name="Arquitetura de Sistema">
    <mxGraphModel dx="2037" dy="1073" grid="1" gridSize="10" guides="1" tooltips="1" connect="1" arrows="1" fold="1" page="1" pageScale="1" pageWidth="850" pageHeight="1100" math="0" shadow="0">
      <root>
        <mxCell id="0" />
        <mxCell id="1" parent="0" />
        <mxCell id="kMaA4LB59OR_5pYYrRgS-21" value="" style="rounded=0;whiteSpace=wrap;html=1;" parent="1" vertex="1">
          <mxGeometry x="24" y="670" width="756" height="310" as="geometry" />
        </mxCell>
        <mxCell id="kMaA4LB59OR_5pYYrRgS-20" style="edgeStyle=orthogonalEdgeStyle;rounded=0;orthogonalLoop=1;jettySize=auto;html=1;" parent="1" source="kMaA4LB59OR_5pYYrRgS-12" target="kMaA4LB59OR_5pYYrRgS-16" edge="1">
          <mxGeometry relative="1" as="geometry" />
        </mxCell>
        <mxCell id="kMaA4LB59OR_5pYYrRgS-12" value="" style="verticalLabelPosition=bottom;html=1;verticalAlign=top;align=center;strokeColor=none;fillColor=#00BEF2;shape=mxgraph.azure.user;" parent="1" vertex="1">
          <mxGeometry x="60" y="810" width="47.5" height="50" as="geometry" />
        </mxCell>
        <mxCell id="kMaA4LB59OR_5pYYrRgS-16" value="" style="dashed=0;outlineConnect=0;html=1;align=center;labelPosition=center;verticalLabelPosition=bottom;verticalAlign=top;shape=mxgraph.weblogos.chrome" parent="1" vertex="1">
          <mxGeometry x="150" y="808.65" width="60" height="52.7" as="geometry" />
        </mxCell>
        <mxCell id="kMaA4LB59OR_5pYYrRgS-18" value="" style="rounded=1;whiteSpace=wrap;html=1;" parent="1" vertex="1">
          <mxGeometry x="250" y="690" width="240" height="250" as="geometry" />
        </mxCell>
        <mxCell id="kMaA4LB59OR_5pYYrRgS-19" value="" style="rounded=1;whiteSpace=wrap;html=1;" parent="1" vertex="1">
          <mxGeometry x="501.22" y="690" width="240" height="250" as="geometry" />
        </mxCell>
        <mxCell id="kMaA4LB59OR_5pYYrRgS-22" value="Criando Cadastro" style="text;html=1;align=center;verticalAlign=middle;whiteSpace=wrap;rounded=0;" parent="1" vertex="1">
          <mxGeometry x="30" y="680" width="130" height="30" as="geometry" />
        </mxCell>
        <mxCell id="kMaA4LB59OR_5pYYrRgS-23" value="Cliente" style="rounded=1;whiteSpace=wrap;html=1;" parent="1" vertex="1">
          <mxGeometry x="305" y="805" width="120" height="60" as="geometry" />
        </mxCell>
        <mxCell id="kMaA4LB59OR_5pYYrRgS-24" value="Camada de serviço" style="text;html=1;align=center;verticalAlign=middle;whiteSpace=wrap;rounded=0;" parent="1" vertex="1">
          <mxGeometry x="280" y="700" width="60" height="30" as="geometry" />
        </mxCell>
        <mxCell id="kMaA4LB59OR_5pYYrRgS-25" style="edgeStyle=orthogonalEdgeStyle;rounded=0;orthogonalLoop=1;jettySize=auto;html=1;" parent="1" source="kMaA4LB59OR_5pYYrRgS-16" target="kMaA4LB59OR_5pYYrRgS-23" edge="1">
          <mxGeometry relative="1" as="geometry" />
        </mxCell>
        <mxCell id="kMaA4LB59OR_5pYYrRgS-26" value="" style="points=[];aspect=fixed;html=1;align=center;shadow=0;dashed=0;fillColor=#FF6A00;strokeColor=none;shape=mxgraph.alibaba_cloud.postgresql;" parent="1" vertex="1">
          <mxGeometry x="580" y="800" width="70.44" height="70" as="geometry" />
        </mxCell>
        <mxCell id="kMaA4LB59OR_5pYYrRgS-27" value="Postgre" style="text;html=1;align=center;verticalAlign=middle;resizable=0;points=[];autosize=1;strokeColor=none;fillColor=none;" parent="1" vertex="1">
          <mxGeometry x="585.22" y="870" width="60" height="30" as="geometry" />
        </mxCell>
        <mxCell id="kMaA4LB59OR_5pYYrRgS-28" style="edgeStyle=orthogonalEdgeStyle;rounded=0;orthogonalLoop=1;jettySize=auto;html=1;entryX=0.028;entryY=0.5;entryDx=0;entryDy=0;entryPerimeter=0;" parent="1" source="kMaA4LB59OR_5pYYrRgS-23" target="kMaA4LB59OR_5pYYrRgS-26" edge="1">
          <mxGeometry relative="1" as="geometry" />
        </mxCell>
        <mxCell id="kMaA4LB59OR_5pYYrRgS-29" value="Camada de Dados" style="text;html=1;align=center;verticalAlign=middle;whiteSpace=wrap;rounded=0;" parent="1" vertex="1">
          <mxGeometry x="540" y="700" width="60" height="30" as="geometry" />
        </mxCell>
        <mxCell id="kMaA4LB59OR_5pYYrRgS-30" value="POST" style="text;html=1;align=center;verticalAlign=middle;whiteSpace=wrap;rounded=0;" parent="1" vertex="1">
          <mxGeometry x="200" y="805" width="60" height="30" as="geometry" />
        </mxCell>
        <mxCell id="kMaA4LB59OR_5pYYrRgS-31" value="ClientRepository" style="text;html=1;align=center;verticalAlign=middle;whiteSpace=wrap;rounded=0;" parent="1" vertex="1">
          <mxGeometry x="441.22" y="808.65" width="60" height="30" as="geometry" />
        </mxCell>
        <mxCell id="k6Z3YzT89KHQUtpp1CAf-1" value="" style="rounded=0;whiteSpace=wrap;html=1;" parent="1" vertex="1">
          <mxGeometry x="24" y="1000" width="756" height="460" as="geometry" />
        </mxCell>
        <mxCell id="k6Z3YzT89KHQUtpp1CAf-2" style="edgeStyle=orthogonalEdgeStyle;rounded=0;orthogonalLoop=1;jettySize=auto;html=1;" parent="1" source="k6Z3YzT89KHQUtpp1CAf-3" target="k6Z3YzT89KHQUtpp1CAf-4" edge="1">
          <mxGeometry relative="1" as="geometry" />
        </mxCell>
        <mxCell id="k6Z3YzT89KHQUtpp1CAf-24" style="edgeStyle=orthogonalEdgeStyle;rounded=0;orthogonalLoop=1;jettySize=auto;html=1;" parent="1" source="k6Z3YzT89KHQUtpp1CAf-3" target="k6Z3YzT89KHQUtpp1CAf-23" edge="1">
          <mxGeometry relative="1" as="geometry">
            <Array as="points">
              <mxPoint x="84" y="1190" />
              <mxPoint x="130" y="1190" />
            </Array>
          </mxGeometry>
        </mxCell>
        <mxCell id="k6Z3YzT89KHQUtpp1CAf-3" value="" style="verticalLabelPosition=bottom;html=1;verticalAlign=top;align=center;strokeColor=none;fillColor=#00BEF2;shape=mxgraph.azure.user;" parent="1" vertex="1">
          <mxGeometry x="60" y="1060" width="47.5" height="50" as="geometry" />
        </mxCell>
        <mxCell id="k6Z3YzT89KHQUtpp1CAf-4" value="" style="dashed=0;outlineConnect=0;html=1;align=center;labelPosition=center;verticalLabelPosition=bottom;verticalAlign=top;shape=mxgraph.weblogos.chrome" parent="1" vertex="1">
          <mxGeometry x="150" y="1100" width="60" height="52.7" as="geometry" />
        </mxCell>
        <mxCell id="k6Z3YzT89KHQUtpp1CAf-5" value="" style="rounded=1;whiteSpace=wrap;html=1;" parent="1" vertex="1">
          <mxGeometry x="250" y="1020" width="240" height="400" as="geometry" />
        </mxCell>
        <mxCell id="k6Z3YzT89KHQUtpp1CAf-6" value="" style="rounded=1;whiteSpace=wrap;html=1;" parent="1" vertex="1">
          <mxGeometry x="501.22" y="1020" width="240" height="400" as="geometry" />
        </mxCell>
        <mxCell id="k6Z3YzT89KHQUtpp1CAf-7" value="Gestão de Produtos" style="text;html=1;align=center;verticalAlign=middle;whiteSpace=wrap;rounded=0;" parent="1" vertex="1">
          <mxGeometry x="30" y="1010" width="130" height="30" as="geometry" />
        </mxCell>
        <mxCell id="k6Z3YzT89KHQUtpp1CAf-21" style="edgeStyle=orthogonalEdgeStyle;rounded=0;orthogonalLoop=1;jettySize=auto;html=1;" parent="1" source="k6Z3YzT89KHQUtpp1CAf-8" target="k6Z3YzT89KHQUtpp1CAf-4" edge="1">
          <mxGeometry relative="1" as="geometry">
            <Array as="points">
              <mxPoint x="180" y="1168" />
            </Array>
          </mxGeometry>
        </mxCell>
        <mxCell id="k6Z3YzT89KHQUtpp1CAf-8" value="Produto" style="rounded=1;whiteSpace=wrap;html=1;" parent="1" vertex="1">
          <mxGeometry x="310" y="1096.35" width="120" height="143.65" as="geometry" />
        </mxCell>
        <mxCell id="k6Z3YzT89KHQUtpp1CAf-9" value="Camada de serviço" style="text;html=1;align=center;verticalAlign=middle;whiteSpace=wrap;rounded=0;" parent="1" vertex="1">
          <mxGeometry x="280" y="1030" width="60" height="30" as="geometry" />
        </mxCell>
        <mxCell id="k6Z3YzT89KHQUtpp1CAf-10" style="edgeStyle=orthogonalEdgeStyle;rounded=0;orthogonalLoop=1;jettySize=auto;html=1;" parent="1" source="k6Z3YzT89KHQUtpp1CAf-4" target="k6Z3YzT89KHQUtpp1CAf-8" edge="1">
          <mxGeometry relative="1" as="geometry">
            <Array as="points">
              <mxPoint x="300" y="1126" />
              <mxPoint x="300" y="1126" />
            </Array>
          </mxGeometry>
        </mxCell>
        <mxCell id="k6Z3YzT89KHQUtpp1CAf-11" value="" style="points=[];aspect=fixed;html=1;align=center;shadow=0;dashed=0;fillColor=#FF6A00;strokeColor=none;shape=mxgraph.alibaba_cloud.postgresql;" parent="1" vertex="1">
          <mxGeometry x="591" y="1106" width="70.44" height="70" as="geometry" />
        </mxCell>
        <mxCell id="k6Z3YzT89KHQUtpp1CAf-12" value="Postgre" style="text;html=1;align=center;verticalAlign=middle;resizable=0;points=[];autosize=1;strokeColor=none;fillColor=none;" parent="1" vertex="1">
          <mxGeometry x="596.22" y="1175" width="60" height="30" as="geometry" />
        </mxCell>
        <mxCell id="k6Z3YzT89KHQUtpp1CAf-13" style="edgeStyle=orthogonalEdgeStyle;rounded=0;orthogonalLoop=1;jettySize=auto;html=1;entryX=0.028;entryY=0.5;entryDx=0;entryDy=0;entryPerimeter=0;" parent="1" source="k6Z3YzT89KHQUtpp1CAf-8" target="k6Z3YzT89KHQUtpp1CAf-11" edge="1">
          <mxGeometry relative="1" as="geometry">
            <Array as="points">
              <mxPoint x="582" y="1140" />
            </Array>
          </mxGeometry>
        </mxCell>
        <mxCell id="k6Z3YzT89KHQUtpp1CAf-14" value="Camada de Dados" style="text;html=1;align=center;verticalAlign=middle;whiteSpace=wrap;rounded=0;" parent="1" vertex="1">
          <mxGeometry x="540" y="1030" width="60" height="30" as="geometry" />
        </mxCell>
        <mxCell id="k6Z3YzT89KHQUtpp1CAf-15" value="POST&amp;nbsp;&lt;div&gt;Cria Produto&lt;/div&gt;" style="text;html=1;align=center;verticalAlign=middle;whiteSpace=wrap;rounded=0;" parent="1" vertex="1">
          <mxGeometry x="200" y="1096.35" width="110" height="30" as="geometry" />
        </mxCell>
        <mxCell id="k6Z3YzT89KHQUtpp1CAf-16" value="ProdutoRepository" style="text;html=1;align=center;verticalAlign=middle;whiteSpace=wrap;rounded=0;" parent="1" vertex="1">
          <mxGeometry x="471" y="1110" width="60" height="30" as="geometry" />
        </mxCell>
        <mxCell id="k6Z3YzT89KHQUtpp1CAf-17" value="Usuário" style="text;html=1;align=center;verticalAlign=middle;whiteSpace=wrap;rounded=0;" parent="1" vertex="1">
          <mxGeometry x="54" y="870" width="60" height="30" as="geometry" />
        </mxCell>
        <mxCell id="k6Z3YzT89KHQUtpp1CAf-19" value="Estoque" style="rounded=1;whiteSpace=wrap;html=1;" parent="1" vertex="1">
          <mxGeometry x="310" y="1250" width="120" height="140" as="geometry" />
        </mxCell>
        <mxCell id="k6Z3YzT89KHQUtpp1CAf-20" value="Gestor do Sistema" style="text;html=1;align=center;verticalAlign=middle;whiteSpace=wrap;rounded=0;" parent="1" vertex="1">
          <mxGeometry x="53.75" y="1205" width="60" height="30" as="geometry" />
        </mxCell>
        <mxCell id="k6Z3YzT89KHQUtpp1CAf-22" value="GET&lt;div&gt;ListaProdutos&lt;/div&gt;" style="text;html=1;align=center;verticalAlign=middle;whiteSpace=wrap;rounded=0;" parent="1" vertex="1">
          <mxGeometry x="195" y="1137.35" width="110" height="30" as="geometry" />
        </mxCell>
        <mxCell id="k6Z3YzT89KHQUtpp1CAf-25" style="edgeStyle=orthogonalEdgeStyle;rounded=0;orthogonalLoop=1;jettySize=auto;html=1;" parent="1" source="k6Z3YzT89KHQUtpp1CAf-23" target="k6Z3YzT89KHQUtpp1CAf-19" edge="1">
          <mxGeometry relative="1" as="geometry">
            <Array as="points">
              <mxPoint x="280" y="1296" />
              <mxPoint x="280" y="1296" />
            </Array>
          </mxGeometry>
        </mxCell>
        <mxCell id="k6Z3YzT89KHQUtpp1CAf-23" value="" style="dashed=0;outlineConnect=0;html=1;align=center;labelPosition=center;verticalLabelPosition=bottom;verticalAlign=top;shape=mxgraph.weblogos.chrome" parent="1" vertex="1">
          <mxGeometry x="100" y="1270" width="60" height="52.7" as="geometry" />
        </mxCell>
        <mxCell id="k6Z3YzT89KHQUtpp1CAf-26" style="edgeStyle=orthogonalEdgeStyle;rounded=0;orthogonalLoop=1;jettySize=auto;html=1;entryX=0.04;entryY=0.731;entryDx=0;entryDy=0;entryPerimeter=0;exitX=1;exitY=0.5;exitDx=0;exitDy=0;" parent="1" source="k6Z3YzT89KHQUtpp1CAf-19" target="k6Z3YzT89KHQUtpp1CAf-11" edge="1">
          <mxGeometry relative="1" as="geometry">
            <mxPoint x="440" y="1150" as="sourcePoint" />
            <mxPoint x="603" y="1151" as="targetPoint" />
            <Array as="points">
              <mxPoint x="540" y="1320" />
              <mxPoint x="540" y="1157" />
            </Array>
          </mxGeometry>
        </mxCell>
        <mxCell id="k6Z3YzT89KHQUtpp1CAf-27" value="EstoqueRepository" style="text;html=1;align=center;verticalAlign=middle;whiteSpace=wrap;rounded=0;" parent="1" vertex="1">
          <mxGeometry x="460" y="1292.7" width="60" height="30" as="geometry" />
        </mxCell>
        <mxCell id="k6Z3YzT89KHQUtpp1CAf-28" value="POST&amp;nbsp;&lt;div&gt;AdicionaProdutoEstoque&lt;/div&gt;" style="text;html=1;align=center;verticalAlign=middle;whiteSpace=wrap;rounded=0;" parent="1" vertex="1">
          <mxGeometry x="180" y="1262.6999999999998" width="110" height="30" as="geometry" />
        </mxCell>
        <mxCell id="k6Z3YzT89KHQUtpp1CAf-29" style="edgeStyle=orthogonalEdgeStyle;rounded=0;orthogonalLoop=1;jettySize=auto;html=1;entryX=0.021;entryY=0.579;entryDx=0;entryDy=0;entryPerimeter=0;" parent="1" source="k6Z3YzT89KHQUtpp1CAf-23" target="k6Z3YzT89KHQUtpp1CAf-19" edge="1">
          <mxGeometry relative="1" as="geometry">
            <mxPoint x="170" y="1306" as="sourcePoint" />
            <mxPoint x="320" y="1306" as="targetPoint" />
            <Array as="points">
              <mxPoint x="130" y="1340" />
              <mxPoint x="300" y="1340" />
              <mxPoint x="300" y="1331" />
            </Array>
          </mxGeometry>
        </mxCell>
        <mxCell id="k6Z3YzT89KHQUtpp1CAf-30" value="GET&lt;div&gt;ListaProdutosEstoque&lt;/div&gt;" style="text;html=1;align=center;verticalAlign=middle;whiteSpace=wrap;rounded=0;" parent="1" vertex="1">
          <mxGeometry x="175" y="1309.9999999999998" width="110" height="30" as="geometry" />
        </mxCell>
        <mxCell id="k6Z3YzT89KHQUtpp1CAf-31" value="" style="rounded=0;whiteSpace=wrap;html=1;" parent="1" vertex="1">
          <mxGeometry x="24" y="1490" width="1406" height="580" as="geometry" />
        </mxCell>
        <mxCell id="k6Z3YzT89KHQUtpp1CAf-32" style="edgeStyle=orthogonalEdgeStyle;rounded=0;orthogonalLoop=1;jettySize=auto;html=1;" parent="1" source="k6Z3YzT89KHQUtpp1CAf-34" target="k6Z3YzT89KHQUtpp1CAf-35" edge="1">
          <mxGeometry relative="1" as="geometry" />
        </mxCell>
        <mxCell id="k6Z3YzT89KHQUtpp1CAf-34" value="Cliente" style="verticalLabelPosition=bottom;html=1;verticalAlign=top;align=center;strokeColor=none;fillColor=#00BEF2;shape=mxgraph.azure.user;" parent="1" vertex="1">
          <mxGeometry x="60" y="1591.35" width="47.5" height="50" as="geometry" />
        </mxCell>
        <mxCell id="k6Z3YzT89KHQUtpp1CAf-35" value="" style="dashed=0;outlineConnect=0;html=1;align=center;labelPosition=center;verticalLabelPosition=bottom;verticalAlign=top;shape=mxgraph.weblogos.chrome" parent="1" vertex="1">
          <mxGeometry x="150" y="1590" width="60" height="52.7" as="geometry" />
        </mxCell>
        <mxCell id="k6Z3YzT89KHQUtpp1CAf-36" value="" style="rounded=1;whiteSpace=wrap;html=1;" parent="1" vertex="1">
          <mxGeometry x="250" y="1510" width="880" height="540" as="geometry" />
        </mxCell>
        <mxCell id="k6Z3YzT89KHQUtpp1CAf-37" value="" style="rounded=1;whiteSpace=wrap;html=1;" parent="1" vertex="1">
          <mxGeometry x="1158.5" y="1510" width="240" height="530" as="geometry" />
        </mxCell>
        <mxCell id="k6Z3YzT89KHQUtpp1CAf-38" value="Fluxo de Pedido" style="text;html=1;align=center;verticalAlign=middle;whiteSpace=wrap;rounded=0;" parent="1" vertex="1">
          <mxGeometry x="30" y="1500" width="130" height="30" as="geometry" />
        </mxCell>
        <mxCell id="k6Z3YzT89KHQUtpp1CAf-40" value="pedido-receiver" style="rounded=1;whiteSpace=wrap;html=1;" parent="1" vertex="1">
          <mxGeometry x="310" y="1586.35" width="120" height="133.65" as="geometry" />
        </mxCell>
        <mxCell id="k6Z3YzT89KHQUtpp1CAf-41" value="Camada de serviço" style="text;html=1;align=center;verticalAlign=middle;whiteSpace=wrap;rounded=0;" parent="1" vertex="1">
          <mxGeometry x="330" y="1520" width="60" height="30" as="geometry" />
        </mxCell>
        <mxCell id="k6Z3YzT89KHQUtpp1CAf-42" style="edgeStyle=orthogonalEdgeStyle;rounded=0;orthogonalLoop=1;jettySize=auto;html=1;" parent="1" source="k6Z3YzT89KHQUtpp1CAf-35" target="k6Z3YzT89KHQUtpp1CAf-40" edge="1">
          <mxGeometry relative="1" as="geometry">
            <Array as="points">
              <mxPoint x="300" y="1616" />
              <mxPoint x="300" y="1616" />
            </Array>
          </mxGeometry>
        </mxCell>
        <mxCell id="k6Z3YzT89KHQUtpp1CAf-60" value="POST&lt;div&gt;ìd_produto&lt;/div&gt;&lt;div&gt;id_cliente&lt;/div&gt;&lt;div&gt;info_cartao&lt;/div&gt;" style="text;html=1;align=left;verticalAlign=top;whiteSpace=wrap;rounded=0;" parent="1" vertex="1">
          <mxGeometry x="220" y="1550" width="70" height="100" as="geometry" />
        </mxCell>
        <mxCell id="k6Z3YzT89KHQUtpp1CAf-69" style="edgeStyle=orthogonalEdgeStyle;rounded=0;orthogonalLoop=1;jettySize=auto;html=1;" parent="1" source="k6Z3YzT89KHQUtpp1CAf-62" target="k6Z3YzT89KHQUtpp1CAf-67" edge="1">
          <mxGeometry relative="1" as="geometry" />
        </mxCell>
        <mxCell id="k6Z3YzT89KHQUtpp1CAf-84" style="edgeStyle=orthogonalEdgeStyle;rounded=0;orthogonalLoop=1;jettySize=auto;html=1;" parent="1" source="k6Z3YzT89KHQUtpp1CAf-62" target="k6Z3YzT89KHQUtpp1CAf-74" edge="1">
          <mxGeometry relative="1" as="geometry">
            <Array as="points">
              <mxPoint x="770" y="1594" />
              <mxPoint x="770" y="1594" />
            </Array>
          </mxGeometry>
        </mxCell>
        <mxCell id="k6Z3YzT89KHQUtpp1CAf-85" value="ValidaCliente" style="edgeLabel;html=1;align=center;verticalAlign=middle;resizable=0;points=[];" parent="k6Z3YzT89KHQUtpp1CAf-84" vertex="1" connectable="0">
          <mxGeometry x="-0.5828" y="1" relative="1" as="geometry">
            <mxPoint x="24" y="1" as="offset" />
          </mxGeometry>
        </mxCell>
        <mxCell id="k6Z3YzT89KHQUtpp1CAf-86" style="edgeStyle=orthogonalEdgeStyle;rounded=0;orthogonalLoop=1;jettySize=auto;html=1;entryX=0;entryY=0.5;entryDx=0;entryDy=0;" parent="1" source="k6Z3YzT89KHQUtpp1CAf-62" target="k6Z3YzT89KHQUtpp1CAf-73" edge="1">
          <mxGeometry relative="1" as="geometry">
            <Array as="points">
              <mxPoint x="720" y="1679" />
            </Array>
          </mxGeometry>
        </mxCell>
        <mxCell id="k6Z3YzT89KHQUtpp1CAf-87" value="ValidaProduto" style="edgeLabel;html=1;align=center;verticalAlign=middle;resizable=0;points=[];" parent="k6Z3YzT89KHQUtpp1CAf-86" vertex="1" connectable="0">
          <mxGeometry x="0.2799" relative="1" as="geometry">
            <mxPoint as="offset" />
          </mxGeometry>
        </mxCell>
        <mxCell id="k6Z3YzT89KHQUtpp1CAf-88" style="edgeStyle=orthogonalEdgeStyle;rounded=0;orthogonalLoop=1;jettySize=auto;html=1;entryX=0;entryY=0.5;entryDx=0;entryDy=0;" parent="1" source="k6Z3YzT89KHQUtpp1CAf-62" target="k6Z3YzT89KHQUtpp1CAf-75" edge="1">
          <mxGeometry relative="1" as="geometry">
            <Array as="points">
              <mxPoint x="720" y="1772" />
            </Array>
          </mxGeometry>
        </mxCell>
        <mxCell id="k6Z3YzT89KHQUtpp1CAf-89" value="RetiraEstoque" style="edgeLabel;html=1;align=center;verticalAlign=middle;resizable=0;points=[];" parent="k6Z3YzT89KHQUtpp1CAf-88" vertex="1" connectable="0">
          <mxGeometry x="0.5098" y="1" relative="1" as="geometry">
            <mxPoint as="offset" />
          </mxGeometry>
        </mxCell>
        <mxCell id="k6Z3YzT89KHQUtpp1CAf-62" value="pedido-service" style="rounded=1;whiteSpace=wrap;html=1;" parent="1" vertex="1">
          <mxGeometry x="621.22" y="1577.23" width="120" height="63.65" as="geometry" />
        </mxCell>
        <mxCell id="k6Z3YzT89KHQUtpp1CAf-63" style="edgeStyle=orthogonalEdgeStyle;rounded=0;orthogonalLoop=1;jettySize=auto;html=1;entryX=0.5;entryY=1;entryDx=0;entryDy=0;entryPerimeter=0;" parent="1" source="k6Z3YzT89KHQUtpp1CAf-40" target="k6Z3YzT89KHQUtpp1CAf-67" edge="1">
          <mxGeometry relative="1" as="geometry">
            <mxPoint x="468.33949000000007" y="1616.594" as="targetPoint" />
            <Array as="points">
              <mxPoint x="501" y="1610" />
            </Array>
          </mxGeometry>
        </mxCell>
        <mxCell id="k6Z3YzT89KHQUtpp1CAf-67" value="" style="shape=cylinder3;whiteSpace=wrap;html=1;boundedLbl=1;backgroundOutline=1;size=15;rotation=90;" parent="1" vertex="1">
          <mxGeometry x="519.5" y="1579.05" width="35" height="60" as="geometry" />
        </mxCell>
        <mxCell id="k6Z3YzT89KHQUtpp1CAf-68" value="NovoPedido" style="text;html=1;align=center;verticalAlign=middle;whiteSpace=wrap;rounded=0;" parent="1" vertex="1">
          <mxGeometry x="436" y="1579.05" width="60" height="30" as="geometry" />
        </mxCell>
        <mxCell id="k6Z3YzT89KHQUtpp1CAf-70" value="RabbitMQ&lt;div&gt;Pedidos&lt;/div&gt;" style="text;html=1;align=center;verticalAlign=middle;whiteSpace=wrap;rounded=0;" parent="1" vertex="1">
          <mxGeometry x="506.44" y="1560" width="60" height="30" as="geometry" />
        </mxCell>
        <mxCell id="k6Z3YzT89KHQUtpp1CAf-73" value="produto-service" style="rounded=1;whiteSpace=wrap;html=1;" parent="1" vertex="1">
          <mxGeometry x="860" y="1647.23" width="120" height="63.65" as="geometry" />
        </mxCell>
        <mxCell id="k6Z3YzT89KHQUtpp1CAf-74" value="cliente-service" style="rounded=1;whiteSpace=wrap;html=1;" parent="1" vertex="1">
          <mxGeometry x="860" y="1562.2200000000003" width="120" height="63.65" as="geometry" />
        </mxCell>
        <mxCell id="k6Z3YzT89KHQUtpp1CAf-75" value="estoque-service" style="rounded=1;whiteSpace=wrap;html=1;" parent="1" vertex="1">
          <mxGeometry x="860" y="1740.0000000000002" width="120" height="63.65" as="geometry" />
        </mxCell>
        <mxCell id="k6Z3YzT89KHQUtpp1CAf-83" style="edgeStyle=orthogonalEdgeStyle;rounded=0;orthogonalLoop=1;jettySize=auto;html=1;" parent="1" source="k6Z3YzT89KHQUtpp1CAf-76" edge="1">
          <mxGeometry relative="1" as="geometry">
            <mxPoint x="1235.2200000000003" y="1851.8000000000002" as="targetPoint" />
          </mxGeometry>
        </mxCell>
        <mxCell id="k6Z3YzT89KHQUtpp1CAf-76" value="pagamento-service" style="rounded=1;whiteSpace=wrap;html=1;" parent="1" vertex="1">
          <mxGeometry x="860" y="1820.0000000000002" width="120" height="63.65" as="geometry" />
        </mxCell>
        <mxCell id="k6Z3YzT89KHQUtpp1CAf-77" value="Postgre&lt;div&gt;Produto&lt;/div&gt;" style="points=[];aspect=fixed;html=1;align=center;shadow=0;dashed=0;fillColor=#FF6A00;strokeColor=none;shape=mxgraph.alibaba_cloud.postgresql;" parent="1" vertex="1">
          <mxGeometry x="1260" y="1670" width="70.44" height="70" as="geometry" />
        </mxCell>
        <mxCell id="k6Z3YzT89KHQUtpp1CAf-78" style="edgeStyle=orthogonalEdgeStyle;rounded=0;orthogonalLoop=1;jettySize=auto;html=1;entryX=0.497;entryY=0.143;entryDx=0;entryDy=0;entryPerimeter=0;" parent="1" source="k6Z3YzT89KHQUtpp1CAf-74" target="k6Z3YzT89KHQUtpp1CAf-77" edge="1">
          <mxGeometry relative="1" as="geometry">
            <mxPoint x="1256.9006399999998" y="1593.1399999999999" as="targetPoint" />
          </mxGeometry>
        </mxCell>
        <mxCell id="k6Z3YzT89KHQUtpp1CAf-79" style="edgeStyle=orthogonalEdgeStyle;rounded=0;orthogonalLoop=1;jettySize=auto;html=1;entryX=0.054;entryY=0.157;entryDx=0;entryDy=0;entryPerimeter=0;" parent="1" source="k6Z3YzT89KHQUtpp1CAf-73" target="k6Z3YzT89KHQUtpp1CAf-77" edge="1">
          <mxGeometry relative="1" as="geometry" />
        </mxCell>
        <mxCell id="k6Z3YzT89KHQUtpp1CAf-80" style="edgeStyle=orthogonalEdgeStyle;rounded=0;orthogonalLoop=1;jettySize=auto;html=1;entryX=-0.007;entryY=0.467;entryDx=0;entryDy=0;entryPerimeter=0;" parent="1" source="k6Z3YzT89KHQUtpp1CAf-75" target="k6Z3YzT89KHQUtpp1CAf-77" edge="1">
          <mxGeometry relative="1" as="geometry">
            <Array as="points">
              <mxPoint x="1120" y="1750" />
              <mxPoint x="1120" y="1703" />
            </Array>
          </mxGeometry>
        </mxCell>
        <mxCell id="k6Z3YzT89KHQUtpp1CAf-91" value="RabbitMQ&lt;div&gt;Pedidos&lt;/div&gt;" style="text;html=1;align=center;verticalAlign=middle;whiteSpace=wrap;rounded=0;" parent="1" vertex="1">
          <mxGeometry x="767.5" y="1820" width="60" height="30" as="geometry" />
        </mxCell>
        <mxCell id="k6Z3YzT89KHQUtpp1CAf-93" style="edgeStyle=orthogonalEdgeStyle;rounded=0;orthogonalLoop=1;jettySize=auto;html=1;" parent="1" source="k6Z3YzT89KHQUtpp1CAf-62" target="k6Z3YzT89KHQUtpp1CAf-76" edge="1">
          <mxGeometry relative="1" as="geometry">
            <Array as="points">
              <mxPoint x="700" y="1852" />
            </Array>
            <mxPoint x="767.5" y="1851.8199999999997" as="targetPoint" />
          </mxGeometry>
        </mxCell>
        <mxCell id="k6Z3YzT89KHQUtpp1CAf-94" value="EnviaPagamento" style="edgeLabel;html=1;align=center;verticalAlign=middle;resizable=0;points=[];" parent="k6Z3YzT89KHQUtpp1CAf-93" vertex="1" connectable="0">
          <mxGeometry x="0.7401" relative="1" as="geometry">
            <mxPoint x="-102" y="-32" as="offset" />
          </mxGeometry>
        </mxCell>
        <mxCell id="k6Z3YzT89KHQUtpp1CAf-98" style="edgeStyle=orthogonalEdgeStyle;rounded=0;orthogonalLoop=1;jettySize=auto;html=1;entryX=0.471;entryY=0.923;entryDx=0;entryDy=0;entryPerimeter=0;" parent="1" source="k6Z3YzT89KHQUtpp1CAf-62" target="FukGPFuSF28QQZnMUDUw-1" edge="1">
          <mxGeometry relative="1" as="geometry">
            <Array as="points">
              <mxPoint x="660" y="1945" />
              <mxPoint x="1277" y="1945" />
            </Array>
            <mxPoint x="1260.261" y="1944.5880000000002" as="targetPoint" />
          </mxGeometry>
        </mxCell>
        <mxCell id="k6Z3YzT89KHQUtpp1CAf-99" value="Grava Pedido" style="edgeLabel;html=1;align=center;verticalAlign=middle;resizable=0;points=[];" parent="k6Z3YzT89KHQUtpp1CAf-98" vertex="1" connectable="0">
          <mxGeometry x="-0.3792" y="3" relative="1" as="geometry">
            <mxPoint y="-1" as="offset" />
          </mxGeometry>
        </mxCell>
        <mxCell id="iuE6cfRMr2w5uf2Wo-1s-1" value="" style="rounded=0;whiteSpace=wrap;html=1;" parent="1" vertex="1">
          <mxGeometry x="24" y="2110" width="1406" height="310" as="geometry" />
        </mxCell>
        <mxCell id="iuE6cfRMr2w5uf2Wo-1s-2" style="edgeStyle=orthogonalEdgeStyle;rounded=0;orthogonalLoop=1;jettySize=auto;html=1;" parent="1" source="iuE6cfRMr2w5uf2Wo-1s-3" target="iuE6cfRMr2w5uf2Wo-1s-4" edge="1">
          <mxGeometry relative="1" as="geometry" />
        </mxCell>
        <mxCell id="iuE6cfRMr2w5uf2Wo-1s-3" value="" style="verticalLabelPosition=bottom;html=1;verticalAlign=top;align=center;strokeColor=none;fillColor=#00BEF2;shape=mxgraph.azure.user;" parent="1" vertex="1">
          <mxGeometry x="60" y="2170" width="47.5" height="50" as="geometry" />
        </mxCell>
        <mxCell id="iuE6cfRMr2w5uf2Wo-1s-4" value="" style="dashed=0;outlineConnect=0;html=1;align=center;labelPosition=center;verticalLabelPosition=bottom;verticalAlign=top;shape=mxgraph.weblogos.chrome" parent="1" vertex="1">
          <mxGeometry x="150" y="2210" width="60" height="52.7" as="geometry" />
        </mxCell>
        <mxCell id="iuE6cfRMr2w5uf2Wo-1s-5" value="" style="rounded=1;whiteSpace=wrap;html=1;" parent="1" vertex="1">
          <mxGeometry x="250" y="2130" width="880" height="250" as="geometry" />
        </mxCell>
        <mxCell id="iuE6cfRMr2w5uf2Wo-1s-6" value="" style="rounded=1;whiteSpace=wrap;html=1;" parent="1" vertex="1">
          <mxGeometry x="1158.5" y="2130" width="240" height="250" as="geometry" />
        </mxCell>
        <mxCell id="iuE6cfRMr2w5uf2Wo-1s-7" value="Consultar Pedido" style="text;html=1;align=center;verticalAlign=middle;whiteSpace=wrap;rounded=0;" parent="1" vertex="1">
          <mxGeometry x="30" y="2120" width="130" height="30" as="geometry" />
        </mxCell>
        <mxCell id="iuE6cfRMr2w5uf2Wo-1s-8" value="pedido-receiver" style="rounded=1;whiteSpace=wrap;html=1;" parent="1" vertex="1">
          <mxGeometry x="310" y="2206.35" width="120" height="133.65" as="geometry" />
        </mxCell>
        <mxCell id="iuE6cfRMr2w5uf2Wo-1s-9" value="Camada de serviço" style="text;html=1;align=center;verticalAlign=middle;whiteSpace=wrap;rounded=0;" parent="1" vertex="1">
          <mxGeometry x="330" y="2140" width="60" height="30" as="geometry" />
        </mxCell>
        <mxCell id="iuE6cfRMr2w5uf2Wo-1s-10" style="edgeStyle=orthogonalEdgeStyle;rounded=0;orthogonalLoop=1;jettySize=auto;html=1;" parent="1" source="iuE6cfRMr2w5uf2Wo-1s-4" target="iuE6cfRMr2w5uf2Wo-1s-8" edge="1">
          <mxGeometry relative="1" as="geometry">
            <Array as="points">
              <mxPoint x="300" y="2236" />
              <mxPoint x="300" y="2236" />
            </Array>
          </mxGeometry>
        </mxCell>
        <mxCell id="iuE6cfRMr2w5uf2Wo-1s-12" value="GET&lt;div&gt;id_produto&lt;/div&gt;" style="text;html=1;align=left;verticalAlign=top;whiteSpace=wrap;rounded=0;" parent="1" vertex="1">
          <mxGeometry x="220" y="2194.05" width="70" height="40" as="geometry" />
        </mxCell>
        <mxCell id="iuE6cfRMr2w5uf2Wo-1s-46" style="edgeStyle=orthogonalEdgeStyle;rounded=0;orthogonalLoop=1;jettySize=auto;html=1;" parent="1" source="iuE6cfRMr2w5uf2Wo-1s-20" target="iuE6cfRMr2w5uf2Wo-1s-32" edge="1">
          <mxGeometry relative="1" as="geometry">
            <Array as="points">
              <mxPoint x="770" y="2230" />
              <mxPoint x="770" y="2230" />
            </Array>
          </mxGeometry>
        </mxCell>
        <mxCell id="iuE6cfRMr2w5uf2Wo-1s-50" style="edgeStyle=orthogonalEdgeStyle;rounded=0;orthogonalLoop=1;jettySize=auto;html=1;" parent="1" source="iuE6cfRMr2w5uf2Wo-1s-20" target="iuE6cfRMr2w5uf2Wo-1s-8" edge="1">
          <mxGeometry relative="1" as="geometry">
            <Array as="points">
              <mxPoint x="580" y="2273" />
              <mxPoint x="580" y="2273" />
            </Array>
          </mxGeometry>
        </mxCell>
        <mxCell id="iuE6cfRMr2w5uf2Wo-1s-20" value="pedido-service" style="rounded=1;whiteSpace=wrap;html=1;" parent="1" vertex="1">
          <mxGeometry x="621.22" y="2197.23" width="120" height="112.77" as="geometry" />
        </mxCell>
        <mxCell id="iuE6cfRMr2w5uf2Wo-1s-21" value="Mongo" style="points=[];aspect=fixed;html=1;align=center;shadow=0;dashed=0;fillColor=#FF6A00;strokeColor=none;shape=mxgraph.alibaba_cloud.mongodb;" parent="1" vertex="1">
          <mxGeometry x="1239.25" y="2206.35" width="78.5" height="78.5" as="geometry" />
        </mxCell>
        <mxCell id="iuE6cfRMr2w5uf2Wo-1s-22" style="edgeStyle=orthogonalEdgeStyle;rounded=0;orthogonalLoop=1;jettySize=auto;html=1;" parent="1" source="iuE6cfRMr2w5uf2Wo-1s-8" target="iuE6cfRMr2w5uf2Wo-1s-20" edge="1">
          <mxGeometry relative="1" as="geometry">
            <mxPoint x="507" y="2229.05" as="targetPoint" />
            <Array as="points">
              <mxPoint x="470" y="2230" />
              <mxPoint x="470" y="2230" />
            </Array>
          </mxGeometry>
        </mxCell>
        <mxCell id="iuE6cfRMr2w5uf2Wo-1s-24" value="ConsultarPedido" style="text;html=1;align=center;verticalAlign=middle;whiteSpace=wrap;rounded=0;" parent="1" vertex="1">
          <mxGeometry x="471" y="2206.35" width="119" height="30" as="geometry" />
        </mxCell>
        <mxCell id="iuE6cfRMr2w5uf2Wo-1s-32" value="pagamento-service" style="rounded=1;whiteSpace=wrap;html=1;" parent="1" vertex="1">
          <mxGeometry x="860" y="2197.23" width="120" height="63.65" as="geometry" />
        </mxCell>
        <mxCell id="iuE6cfRMr2w5uf2Wo-1s-42" style="edgeStyle=orthogonalEdgeStyle;rounded=0;orthogonalLoop=1;jettySize=auto;html=1;entryX=0.106;entryY=0.24;entryDx=0;entryDy=0;entryPerimeter=0;" parent="1" source="iuE6cfRMr2w5uf2Wo-1s-32" target="iuE6cfRMr2w5uf2Wo-1s-21" edge="1">
          <mxGeometry relative="1" as="geometry">
            <Array as="points">
              <mxPoint x="1040" y="2225" />
              <mxPoint x="1040" y="2225" />
            </Array>
          </mxGeometry>
        </mxCell>
        <mxCell id="iuE6cfRMr2w5uf2Wo-1s-43" value="Tabela Pagamento" style="text;html=1;align=center;verticalAlign=middle;whiteSpace=wrap;rounded=0;" parent="1" vertex="1">
          <mxGeometry x="990" y="2200" width="130" height="30" as="geometry" />
        </mxCell>
        <mxCell id="iuE6cfRMr2w5uf2Wo-1s-44" style="edgeStyle=orthogonalEdgeStyle;rounded=0;orthogonalLoop=1;jettySize=auto;html=1;entryX=0.106;entryY=0.568;entryDx=0;entryDy=0;entryPerimeter=0;" parent="1" source="iuE6cfRMr2w5uf2Wo-1s-20" target="iuE6cfRMr2w5uf2Wo-1s-21" edge="1">
          <mxGeometry relative="1" as="geometry">
            <Array as="points">
              <mxPoint x="660" y="2320" />
              <mxPoint x="1200" y="2320" />
              <mxPoint x="1200" y="2251" />
            </Array>
          </mxGeometry>
        </mxCell>
        <mxCell id="iuE6cfRMr2w5uf2Wo-1s-45" value="Grava Pedido" style="edgeLabel;html=1;align=center;verticalAlign=middle;resizable=0;points=[];" parent="iuE6cfRMr2w5uf2Wo-1s-44" connectable="0" vertex="1">
          <mxGeometry x="-0.3792" y="3" relative="1" as="geometry">
            <mxPoint y="-1" as="offset" />
          </mxGeometry>
        </mxCell>
        <mxCell id="iuE6cfRMr2w5uf2Wo-1s-47" value="Consulta Status Pagamento" style="text;html=1;align=center;verticalAlign=middle;whiteSpace=wrap;rounded=0;" parent="1" vertex="1">
          <mxGeometry x="767.5" y="2194.0499999999997" width="60" height="30" as="geometry" />
        </mxCell>
        <mxCell id="iuE6cfRMr2w5uf2Wo-1s-48" value="Tabela Pedido" style="text;html=1;align=center;verticalAlign=middle;whiteSpace=wrap;rounded=0;" parent="1" vertex="1">
          <mxGeometry x="780" y="1920" width="130" height="30" as="geometry" />
        </mxCell>
        <mxCell id="iuE6cfRMr2w5uf2Wo-1s-49" value="Tabela Pagamento" style="text;html=1;align=center;verticalAlign=middle;whiteSpace=wrap;rounded=0;" parent="1" vertex="1">
          <mxGeometry x="930" y="2290" width="130" height="30" as="geometry" />
        </mxCell>
        <mxCell id="iuE6cfRMr2w5uf2Wo-1s-51" value="Devolve status do pedido" style="text;html=1;align=center;verticalAlign=middle;whiteSpace=wrap;rounded=0;" parent="1" vertex="1">
          <mxGeometry x="451" y="2250" width="149" height="30" as="geometry" />
        </mxCell>
        <mxCell id="FukGPFuSF28QQZnMUDUw-1" value="Mongo" style="points=[];aspect=fixed;html=1;align=center;shadow=0;dashed=0;fillColor=#FF6A00;strokeColor=none;shape=mxgraph.alibaba_cloud.mongodb;" parent="1" vertex="1">
          <mxGeometry x="1240" y="1812.57" width="78.5" height="78.5" as="geometry" />
        </mxCell>
      </root>
    </mxGraphModel>
  </diagram>
  <diagram name="Page-1" id="a3FZpLWyr13oP5pj1oyc">
    <mxGraphModel dx="948" dy="1705" grid="1" gridSize="10" guides="1" tooltips="1" connect="1" arrows="1" fold="1" page="1" pageScale="1" pageWidth="850" pageHeight="1100" math="0" shadow="0">
      <root>
        <mxCell id="0" />
        <mxCell id="1" parent="0" />
        <mxCell id="kBfl3G-ZKAgsRKqZ92l4-2" value="" style="rounded=1;whiteSpace=wrap;html=1;" parent="1" vertex="1">
          <mxGeometry x="80" y="-30" width="830" height="430" as="geometry" />
        </mxCell>
        <mxCell id="kBfl3G-ZKAgsRKqZ92l4-1" value="Loja de Brinquedos" style="text;html=1;align=center;verticalAlign=middle;whiteSpace=wrap;rounded=0;fontStyle=1" parent="1" vertex="1">
          <mxGeometry x="100" y="-30" width="190" height="30" as="geometry" />
        </mxCell>
        <mxCell id="kBfl3G-ZKAgsRKqZ92l4-3" value="Cliente" style="swimlane;fontStyle=0;childLayout=stackLayout;horizontal=1;startSize=30;horizontalStack=0;resizeParent=1;resizeParentMax=0;resizeLast=0;collapsible=1;marginBottom=0;whiteSpace=wrap;html=1;" parent="1" vertex="1">
          <mxGeometry x="125" y="40" width="140" height="120" as="geometry" />
        </mxCell>
        <mxCell id="kBfl3G-ZKAgsRKqZ92l4-4" value="Nome" style="text;strokeColor=none;fillColor=none;align=left;verticalAlign=middle;spacingLeft=4;spacingRight=4;overflow=hidden;points=[[0,0.5],[1,0.5]];portConstraint=eastwest;rotatable=0;whiteSpace=wrap;html=1;" parent="kBfl3G-ZKAgsRKqZ92l4-3" vertex="1">
          <mxGeometry y="30" width="140" height="30" as="geometry" />
        </mxCell>
        <mxCell id="kBfl3G-ZKAgsRKqZ92l4-5" value="CPF (PK)" style="text;strokeColor=none;fillColor=none;align=left;verticalAlign=middle;spacingLeft=4;spacingRight=4;overflow=hidden;points=[[0,0.5],[1,0.5]];portConstraint=eastwest;rotatable=0;whiteSpace=wrap;html=1;" parent="kBfl3G-ZKAgsRKqZ92l4-3" vertex="1">
          <mxGeometry y="60" width="140" height="30" as="geometry" />
        </mxCell>
        <mxCell id="kBfl3G-ZKAgsRKqZ92l4-6" value="Endereço" style="text;strokeColor=none;fillColor=none;align=left;verticalAlign=middle;spacingLeft=4;spacingRight=4;overflow=hidden;points=[[0,0.5],[1,0.5]];portConstraint=eastwest;rotatable=0;whiteSpace=wrap;html=1;" parent="kBfl3G-ZKAgsRKqZ92l4-3" vertex="1">
          <mxGeometry y="90" width="140" height="30" as="geometry" />
        </mxCell>
        <mxCell id="kBfl3G-ZKAgsRKqZ92l4-7" value="Produto" style="swimlane;fontStyle=0;childLayout=stackLayout;horizontal=1;startSize=30;horizontalStack=0;resizeParent=1;resizeParentMax=0;resizeLast=0;collapsible=1;marginBottom=0;whiteSpace=wrap;html=1;" parent="1" vertex="1">
          <mxGeometry x="280" y="40" width="140" height="120" as="geometry" />
        </mxCell>
        <mxCell id="kBfl3G-ZKAgsRKqZ92l4-8" value="Nome" style="text;strokeColor=none;fillColor=none;align=left;verticalAlign=middle;spacingLeft=4;spacingRight=4;overflow=hidden;points=[[0,0.5],[1,0.5]];portConstraint=eastwest;rotatable=0;whiteSpace=wrap;html=1;" parent="kBfl3G-ZKAgsRKqZ92l4-7" vertex="1">
          <mxGeometry y="30" width="140" height="30" as="geometry" />
        </mxCell>
        <mxCell id="kBfl3G-ZKAgsRKqZ92l4-9" value="SKU" style="text;strokeColor=none;fillColor=none;align=left;verticalAlign=middle;spacingLeft=4;spacingRight=4;overflow=hidden;points=[[0,0.5],[1,0.5]];portConstraint=eastwest;rotatable=0;whiteSpace=wrap;html=1;" parent="kBfl3G-ZKAgsRKqZ92l4-7" vertex="1">
          <mxGeometry y="60" width="140" height="30" as="geometry" />
        </mxCell>
        <mxCell id="kBfl3G-ZKAgsRKqZ92l4-10" value="Preço unitário" style="text;strokeColor=none;fillColor=none;align=left;verticalAlign=middle;spacingLeft=4;spacingRight=4;overflow=hidden;points=[[0,0.5],[1,0.5]];portConstraint=eastwest;rotatable=0;whiteSpace=wrap;html=1;" parent="kBfl3G-ZKAgsRKqZ92l4-7" vertex="1">
          <mxGeometry y="90" width="140" height="30" as="geometry" />
        </mxCell>
        <mxCell id="kBfl3G-ZKAgsRKqZ92l4-12" value="Estoque" style="swimlane;fontStyle=0;childLayout=stackLayout;horizontal=1;startSize=30;horizontalStack=0;resizeParent=1;resizeParentMax=0;resizeLast=0;collapsible=1;marginBottom=0;whiteSpace=wrap;html=1;" parent="1" vertex="1">
          <mxGeometry x="430" y="40" width="140" height="90" as="geometry" />
        </mxCell>
        <mxCell id="kBfl3G-ZKAgsRKqZ92l4-13" value="Produto (FK)" style="text;strokeColor=none;fillColor=none;align=left;verticalAlign=middle;spacingLeft=4;spacingRight=4;overflow=hidden;points=[[0,0.5],[1,0.5]];portConstraint=eastwest;rotatable=0;whiteSpace=wrap;html=1;" parent="kBfl3G-ZKAgsRKqZ92l4-12" vertex="1">
          <mxGeometry y="30" width="140" height="30" as="geometry" />
        </mxCell>
        <mxCell id="kBfl3G-ZKAgsRKqZ92l4-14" value="Quantidade" style="text;strokeColor=none;fillColor=none;align=left;verticalAlign=middle;spacingLeft=4;spacingRight=4;overflow=hidden;points=[[0,0.5],[1,0.5]];portConstraint=eastwest;rotatable=0;whiteSpace=wrap;html=1;" parent="kBfl3G-ZKAgsRKqZ92l4-12" vertex="1">
          <mxGeometry y="60" width="140" height="30" as="geometry" />
        </mxCell>
        <mxCell id="kBfl3G-ZKAgsRKqZ92l4-16" value="Pedido" style="swimlane;fontStyle=0;childLayout=stackLayout;horizontal=1;startSize=30;horizontalStack=0;resizeParent=1;resizeParentMax=0;resizeLast=0;collapsible=1;marginBottom=0;whiteSpace=wrap;html=1;" parent="1" vertex="1">
          <mxGeometry x="580" y="40" width="140" height="240" as="geometry" />
        </mxCell>
        <mxCell id="kBfl3G-ZKAgsRKqZ92l4-26" value="ID do pedido (PK)" style="text;strokeColor=none;fillColor=none;align=left;verticalAlign=middle;spacingLeft=4;spacingRight=4;overflow=hidden;points=[[0,0.5],[1,0.5]];portConstraint=eastwest;rotatable=0;whiteSpace=wrap;html=1;" parent="kBfl3G-ZKAgsRKqZ92l4-16" vertex="1">
          <mxGeometry y="30" width="140" height="30" as="geometry" />
        </mxCell>
        <mxCell id="kBfl3G-ZKAgsRKqZ92l4-18" value="Itens" style="text;strokeColor=none;fillColor=none;align=left;verticalAlign=middle;spacingLeft=4;spacingRight=4;overflow=hidden;points=[[0,0.5],[1,0.5]];portConstraint=eastwest;rotatable=0;whiteSpace=wrap;html=1;" parent="kBfl3G-ZKAgsRKqZ92l4-16" vertex="1">
          <mxGeometry y="60" width="140" height="30" as="geometry" />
        </mxCell>
        <mxCell id="kBfl3G-ZKAgsRKqZ92l4-19" value="Cliente (FK)" style="text;strokeColor=none;fillColor=none;align=left;verticalAlign=middle;spacingLeft=4;spacingRight=4;overflow=hidden;points=[[0,0.5],[1,0.5]];portConstraint=eastwest;rotatable=0;whiteSpace=wrap;html=1;" parent="kBfl3G-ZKAgsRKqZ92l4-16" vertex="1">
          <mxGeometry y="90" width="140" height="30" as="geometry" />
        </mxCell>
        <mxCell id="kBfl3G-ZKAgsRKqZ92l4-25" value="Cartão de Crédito" style="text;strokeColor=none;fillColor=none;align=left;verticalAlign=middle;spacingLeft=4;spacingRight=4;overflow=hidden;points=[[0,0.5],[1,0.5]];portConstraint=eastwest;rotatable=0;whiteSpace=wrap;html=1;" parent="kBfl3G-ZKAgsRKqZ92l4-16" vertex="1">
          <mxGeometry y="120" width="140" height="30" as="geometry" />
        </mxCell>
        <mxCell id="kBfl3G-ZKAgsRKqZ92l4-27" value="Data do pedido" style="text;strokeColor=none;fillColor=none;align=left;verticalAlign=middle;spacingLeft=4;spacingRight=4;overflow=hidden;points=[[0,0.5],[1,0.5]];portConstraint=eastwest;rotatable=0;whiteSpace=wrap;html=1;" parent="kBfl3G-ZKAgsRKqZ92l4-16" vertex="1">
          <mxGeometry y="150" width="140" height="30" as="geometry" />
        </mxCell>
        <mxCell id="kBfl3G-ZKAgsRKqZ92l4-28" value="Status" style="text;strokeColor=none;fillColor=none;align=left;verticalAlign=middle;spacingLeft=4;spacingRight=4;overflow=hidden;points=[[0,0.5],[1,0.5]];portConstraint=eastwest;rotatable=0;whiteSpace=wrap;html=1;" parent="kBfl3G-ZKAgsRKqZ92l4-16" vertex="1">
          <mxGeometry y="180" width="140" height="30" as="geometry" />
        </mxCell>
        <mxCell id="kBfl3G-ZKAgsRKqZ92l4-39" value="Preço Total do pedido" style="text;strokeColor=none;fillColor=none;align=left;verticalAlign=middle;spacingLeft=4;spacingRight=4;overflow=hidden;points=[[0,0.5],[1,0.5]];portConstraint=eastwest;rotatable=0;whiteSpace=wrap;html=1;" parent="kBfl3G-ZKAgsRKqZ92l4-16" vertex="1">
          <mxGeometry y="210" width="140" height="30" as="geometry" />
        </mxCell>
        <mxCell id="kBfl3G-ZKAgsRKqZ92l4-20" value="Pagamento" style="swimlane;fontStyle=0;childLayout=stackLayout;horizontal=1;startSize=30;horizontalStack=0;resizeParent=1;resizeParentMax=0;resizeLast=0;collapsible=1;marginBottom=0;whiteSpace=wrap;html=1;" parent="1" vertex="1">
          <mxGeometry x="125" y="190" width="140" height="120" as="geometry" />
        </mxCell>
        <mxCell id="kBfl3G-ZKAgsRKqZ92l4-21" value="Cartão Credito" style="text;strokeColor=none;fillColor=none;align=left;verticalAlign=middle;spacingLeft=4;spacingRight=4;overflow=hidden;points=[[0,0.5],[1,0.5]];portConstraint=eastwest;rotatable=0;whiteSpace=wrap;html=1;" parent="kBfl3G-ZKAgsRKqZ92l4-20" vertex="1">
          <mxGeometry y="30" width="140" height="30" as="geometry" />
        </mxCell>
        <mxCell id="kBfl3G-ZKAgsRKqZ92l4-22" value="Item 2" style="text;strokeColor=none;fillColor=none;align=left;verticalAlign=middle;spacingLeft=4;spacingRight=4;overflow=hidden;points=[[0,0.5],[1,0.5]];portConstraint=eastwest;rotatable=0;whiteSpace=wrap;html=1;" parent="kBfl3G-ZKAgsRKqZ92l4-20" vertex="1">
          <mxGeometry y="60" width="140" height="30" as="geometry" />
        </mxCell>
        <mxCell id="kBfl3G-ZKAgsRKqZ92l4-23" value="Item 3" style="text;strokeColor=none;fillColor=none;align=left;verticalAlign=middle;spacingLeft=4;spacingRight=4;overflow=hidden;points=[[0,0.5],[1,0.5]];portConstraint=eastwest;rotatable=0;whiteSpace=wrap;html=1;" parent="kBfl3G-ZKAgsRKqZ92l4-20" vertex="1">
          <mxGeometry y="90" width="140" height="30" as="geometry" />
        </mxCell>
        <mxCell id="kBfl3G-ZKAgsRKqZ92l4-24" value="Mock De gestão de pagamento" style="rounded=1;whiteSpace=wrap;html=1;" parent="1" vertex="1">
          <mxGeometry x="290" y="190" width="120" height="60" as="geometry" />
        </mxCell>
        <mxCell id="kBfl3G-ZKAgsRKqZ92l4-30" value="Itens do pedido" style="swimlane;fontStyle=0;childLayout=stackLayout;horizontal=1;startSize=30;horizontalStack=0;resizeParent=1;resizeParentMax=0;resizeLast=0;collapsible=1;marginBottom=0;whiteSpace=wrap;html=1;" parent="1" vertex="1">
          <mxGeometry x="730" y="40" width="140" height="180" as="geometry" />
        </mxCell>
        <mxCell id="kBfl3G-ZKAgsRKqZ92l4-38" value="ID Incremental (PK)" style="text;strokeColor=none;fillColor=none;align=left;verticalAlign=middle;spacingLeft=4;spacingRight=4;overflow=hidden;points=[[0,0.5],[1,0.5]];portConstraint=eastwest;rotatable=0;whiteSpace=wrap;html=1;" parent="kBfl3G-ZKAgsRKqZ92l4-30" vertex="1">
          <mxGeometry y="30" width="140" height="30" as="geometry" />
        </mxCell>
        <mxCell id="kBfl3G-ZKAgsRKqZ92l4-31" value="ID do pedido (FK)" style="text;strokeColor=none;fillColor=none;align=left;verticalAlign=middle;spacingLeft=4;spacingRight=4;overflow=hidden;points=[[0,0.5],[1,0.5]];portConstraint=eastwest;rotatable=0;whiteSpace=wrap;html=1;" parent="kBfl3G-ZKAgsRKqZ92l4-30" vertex="1">
          <mxGeometry y="60" width="140" height="30" as="geometry" />
        </mxCell>
        <mxCell id="kBfl3G-ZKAgsRKqZ92l4-32" value="Produto (FK)" style="text;strokeColor=none;fillColor=none;align=left;verticalAlign=middle;spacingLeft=4;spacingRight=4;overflow=hidden;points=[[0,0.5],[1,0.5]];portConstraint=eastwest;rotatable=0;whiteSpace=wrap;html=1;" parent="kBfl3G-ZKAgsRKqZ92l4-30" vertex="1">
          <mxGeometry y="90" width="140" height="30" as="geometry" />
        </mxCell>
        <mxCell id="kBfl3G-ZKAgsRKqZ92l4-33" value="Quantidade" style="text;strokeColor=none;fillColor=none;align=left;verticalAlign=middle;spacingLeft=4;spacingRight=4;overflow=hidden;points=[[0,0.5],[1,0.5]];portConstraint=eastwest;rotatable=0;whiteSpace=wrap;html=1;" parent="kBfl3G-ZKAgsRKqZ92l4-30" vertex="1">
          <mxGeometry y="120" width="140" height="30" as="geometry" />
        </mxCell>
        <mxCell id="kBfl3G-ZKAgsRKqZ92l4-35" value="Preço Total dos itens" style="text;strokeColor=none;fillColor=none;align=left;verticalAlign=middle;spacingLeft=4;spacingRight=4;overflow=hidden;points=[[0,0.5],[1,0.5]];portConstraint=eastwest;rotatable=0;whiteSpace=wrap;html=1;" parent="kBfl3G-ZKAgsRKqZ92l4-30" vertex="1">
          <mxGeometry y="150" width="140" height="30" as="geometry" />
        </mxCell>
      </root>
    </mxGraphModel>
  </diagram>
  <diagram id="Ji2WvCngZm7GngDUDPcM" name="pedidos">
    <mxGraphModel dx="1426" dy="-418" grid="1" gridSize="10" guides="1" tooltips="1" connect="1" arrows="1" fold="1" page="1" pageScale="1" pageWidth="827" pageHeight="1169" math="0" shadow="0">
      <root>
        <mxCell id="0" />
        <mxCell id="1" parent="0" />
        <mxCell id="u76v-qcpaVpkkCXoTyXi-1" value="" style="rounded=0;whiteSpace=wrap;html=1;" vertex="1" parent="1">
          <mxGeometry x="24" y="1490" width="1406" height="580" as="geometry" />
        </mxCell>
        <mxCell id="u76v-qcpaVpkkCXoTyXi-2" style="edgeStyle=orthogonalEdgeStyle;rounded=0;orthogonalLoop=1;jettySize=auto;html=1;" edge="1" parent="1" source="u76v-qcpaVpkkCXoTyXi-3" target="u76v-qcpaVpkkCXoTyXi-4">
          <mxGeometry relative="1" as="geometry" />
        </mxCell>
        <mxCell id="u76v-qcpaVpkkCXoTyXi-3" value="Cliente" style="verticalLabelPosition=bottom;html=1;verticalAlign=top;align=center;strokeColor=none;fillColor=#00BEF2;shape=mxgraph.azure.user;" vertex="1" parent="1">
          <mxGeometry x="60" y="1591.35" width="47.5" height="50" as="geometry" />
        </mxCell>
        <mxCell id="u76v-qcpaVpkkCXoTyXi-4" value="" style="dashed=0;outlineConnect=0;html=1;align=center;labelPosition=center;verticalLabelPosition=bottom;verticalAlign=top;shape=mxgraph.weblogos.chrome" vertex="1" parent="1">
          <mxGeometry x="150" y="1590" width="60" height="52.7" as="geometry" />
        </mxCell>
        <mxCell id="u76v-qcpaVpkkCXoTyXi-5" value="" style="rounded=1;whiteSpace=wrap;html=1;" vertex="1" parent="1">
          <mxGeometry x="250" y="1510" width="880" height="540" as="geometry" />
        </mxCell>
        <mxCell id="u76v-qcpaVpkkCXoTyXi-6" value="" style="rounded=1;whiteSpace=wrap;html=1;" vertex="1" parent="1">
          <mxGeometry x="1158.5" y="1510" width="240" height="530" as="geometry" />
        </mxCell>
        <mxCell id="u76v-qcpaVpkkCXoTyXi-7" value="Fluxo de Pedido" style="text;html=1;align=center;verticalAlign=middle;whiteSpace=wrap;rounded=0;" vertex="1" parent="1">
          <mxGeometry x="30" y="1500" width="130" height="30" as="geometry" />
        </mxCell>
        <mxCell id="u76v-qcpaVpkkCXoTyXi-8" value="pedido-receiver" style="rounded=1;whiteSpace=wrap;html=1;" vertex="1" parent="1">
          <mxGeometry x="310" y="1586.35" width="120" height="133.65" as="geometry" />
        </mxCell>
        <mxCell id="u76v-qcpaVpkkCXoTyXi-9" value="Camada de serviço" style="text;html=1;align=center;verticalAlign=middle;whiteSpace=wrap;rounded=0;" vertex="1" parent="1">
          <mxGeometry x="330" y="1520" width="60" height="30" as="geometry" />
        </mxCell>
        <mxCell id="u76v-qcpaVpkkCXoTyXi-10" style="edgeStyle=orthogonalEdgeStyle;rounded=0;orthogonalLoop=1;jettySize=auto;html=1;" edge="1" parent="1" source="u76v-qcpaVpkkCXoTyXi-4" target="u76v-qcpaVpkkCXoTyXi-8">
          <mxGeometry relative="1" as="geometry">
            <Array as="points">
              <mxPoint x="300" y="1616" />
              <mxPoint x="300" y="1616" />
            </Array>
          </mxGeometry>
        </mxCell>
        <mxCell id="u76v-qcpaVpkkCXoTyXi-11" value="POST&lt;div&gt;ìd_produto&lt;/div&gt;&lt;div&gt;id_cliente&lt;/div&gt;&lt;div&gt;info_cartao&lt;/div&gt;" style="text;html=1;align=left;verticalAlign=top;whiteSpace=wrap;rounded=0;" vertex="1" parent="1">
          <mxGeometry x="220" y="1550" width="70" height="100" as="geometry" />
        </mxCell>
        <mxCell id="u76v-qcpaVpkkCXoTyXi-12" style="edgeStyle=orthogonalEdgeStyle;rounded=0;orthogonalLoop=1;jettySize=auto;html=1;" edge="1" parent="1" source="u76v-qcpaVpkkCXoTyXi-19" target="u76v-qcpaVpkkCXoTyXi-21">
          <mxGeometry relative="1" as="geometry" />
        </mxCell>
        <mxCell id="u76v-qcpaVpkkCXoTyXi-13" style="edgeStyle=orthogonalEdgeStyle;rounded=0;orthogonalLoop=1;jettySize=auto;html=1;" edge="1" parent="1" source="u76v-qcpaVpkkCXoTyXi-19" target="u76v-qcpaVpkkCXoTyXi-25">
          <mxGeometry relative="1" as="geometry">
            <Array as="points">
              <mxPoint x="770" y="1594" />
              <mxPoint x="770" y="1594" />
            </Array>
          </mxGeometry>
        </mxCell>
        <mxCell id="u76v-qcpaVpkkCXoTyXi-14" value="ValidaCliente" style="edgeLabel;html=1;align=center;verticalAlign=middle;resizable=0;points=[];" vertex="1" connectable="0" parent="u76v-qcpaVpkkCXoTyXi-13">
          <mxGeometry x="-0.5828" y="1" relative="1" as="geometry">
            <mxPoint x="24" y="1" as="offset" />
          </mxGeometry>
        </mxCell>
        <mxCell id="u76v-qcpaVpkkCXoTyXi-15" style="edgeStyle=orthogonalEdgeStyle;rounded=0;orthogonalLoop=1;jettySize=auto;html=1;entryX=0;entryY=0.5;entryDx=0;entryDy=0;" edge="1" parent="1" source="u76v-qcpaVpkkCXoTyXi-19" target="u76v-qcpaVpkkCXoTyXi-24">
          <mxGeometry relative="1" as="geometry">
            <Array as="points">
              <mxPoint x="720" y="1679" />
            </Array>
          </mxGeometry>
        </mxCell>
        <mxCell id="u76v-qcpaVpkkCXoTyXi-16" value="ValidaProduto" style="edgeLabel;html=1;align=center;verticalAlign=middle;resizable=0;points=[];" vertex="1" connectable="0" parent="u76v-qcpaVpkkCXoTyXi-15">
          <mxGeometry x="0.2799" relative="1" as="geometry">
            <mxPoint as="offset" />
          </mxGeometry>
        </mxCell>
        <mxCell id="u76v-qcpaVpkkCXoTyXi-17" style="edgeStyle=orthogonalEdgeStyle;rounded=0;orthogonalLoop=1;jettySize=auto;html=1;entryX=0;entryY=0.5;entryDx=0;entryDy=0;" edge="1" parent="1" source="u76v-qcpaVpkkCXoTyXi-19" target="u76v-qcpaVpkkCXoTyXi-26">
          <mxGeometry relative="1" as="geometry">
            <Array as="points">
              <mxPoint x="720" y="1772" />
            </Array>
          </mxGeometry>
        </mxCell>
        <mxCell id="u76v-qcpaVpkkCXoTyXi-18" value="RetiraEstoque" style="edgeLabel;html=1;align=center;verticalAlign=middle;resizable=0;points=[];" vertex="1" connectable="0" parent="u76v-qcpaVpkkCXoTyXi-17">
          <mxGeometry x="0.5098" y="1" relative="1" as="geometry">
            <mxPoint as="offset" />
          </mxGeometry>
        </mxCell>
        <mxCell id="u76v-qcpaVpkkCXoTyXi-19" value="pedido-service" style="rounded=1;whiteSpace=wrap;html=1;" vertex="1" parent="1">
          <mxGeometry x="621.22" y="1577.23" width="120" height="63.65" as="geometry" />
        </mxCell>
        <mxCell id="u76v-qcpaVpkkCXoTyXi-20" style="edgeStyle=orthogonalEdgeStyle;rounded=0;orthogonalLoop=1;jettySize=auto;html=1;entryX=0.5;entryY=1;entryDx=0;entryDy=0;entryPerimeter=0;" edge="1" parent="1" source="u76v-qcpaVpkkCXoTyXi-8" target="u76v-qcpaVpkkCXoTyXi-21">
          <mxGeometry relative="1" as="geometry">
            <mxPoint x="468.33949000000007" y="1616.594" as="targetPoint" />
            <Array as="points">
              <mxPoint x="501" y="1610" />
            </Array>
          </mxGeometry>
        </mxCell>
        <mxCell id="u76v-qcpaVpkkCXoTyXi-21" value="" style="shape=cylinder3;whiteSpace=wrap;html=1;boundedLbl=1;backgroundOutline=1;size=15;rotation=90;" vertex="1" parent="1">
          <mxGeometry x="519.5" y="1579.05" width="35" height="60" as="geometry" />
        </mxCell>
        <mxCell id="u76v-qcpaVpkkCXoTyXi-22" value="NovoPedido" style="text;html=1;align=center;verticalAlign=middle;whiteSpace=wrap;rounded=0;" vertex="1" parent="1">
          <mxGeometry x="436" y="1579.05" width="60" height="30" as="geometry" />
        </mxCell>
        <mxCell id="u76v-qcpaVpkkCXoTyXi-23" value="RabbitMQ&lt;div&gt;Pedidos&lt;/div&gt;" style="text;html=1;align=center;verticalAlign=middle;whiteSpace=wrap;rounded=0;" vertex="1" parent="1">
          <mxGeometry x="506.44" y="1560" width="60" height="30" as="geometry" />
        </mxCell>
        <mxCell id="u76v-qcpaVpkkCXoTyXi-24" value="produto-service" style="rounded=1;whiteSpace=wrap;html=1;" vertex="1" parent="1">
          <mxGeometry x="860" y="1647.23" width="120" height="63.65" as="geometry" />
        </mxCell>
        <mxCell id="u76v-qcpaVpkkCXoTyXi-25" value="cliente-service" style="rounded=1;whiteSpace=wrap;html=1;" vertex="1" parent="1">
          <mxGeometry x="860" y="1562.2200000000003" width="120" height="63.65" as="geometry" />
        </mxCell>
        <mxCell id="u76v-qcpaVpkkCXoTyXi-26" value="estoque-service" style="rounded=1;whiteSpace=wrap;html=1;" vertex="1" parent="1">
          <mxGeometry x="860" y="1740.0000000000002" width="120" height="63.65" as="geometry" />
        </mxCell>
        <mxCell id="u76v-qcpaVpkkCXoTyXi-27" style="edgeStyle=orthogonalEdgeStyle;rounded=0;orthogonalLoop=1;jettySize=auto;html=1;" edge="1" parent="1" source="u76v-qcpaVpkkCXoTyXi-28">
          <mxGeometry relative="1" as="geometry">
            <mxPoint x="1235.2200000000003" y="1851.8000000000002" as="targetPoint" />
          </mxGeometry>
        </mxCell>
        <mxCell id="u76v-qcpaVpkkCXoTyXi-28" value="pagamento-service" style="rounded=1;whiteSpace=wrap;html=1;" vertex="1" parent="1">
          <mxGeometry x="860" y="1820.0000000000002" width="120" height="63.65" as="geometry" />
        </mxCell>
        <mxCell id="u76v-qcpaVpkkCXoTyXi-29" value="Postgre&lt;div&gt;Produto&lt;/div&gt;" style="points=[];aspect=fixed;html=1;align=center;shadow=0;dashed=0;fillColor=#FF6A00;strokeColor=none;shape=mxgraph.alibaba_cloud.postgresql;" vertex="1" parent="1">
          <mxGeometry x="1260" y="1670" width="70.44" height="70" as="geometry" />
        </mxCell>
        <mxCell id="u76v-qcpaVpkkCXoTyXi-30" style="edgeStyle=orthogonalEdgeStyle;rounded=0;orthogonalLoop=1;jettySize=auto;html=1;entryX=0.497;entryY=0.143;entryDx=0;entryDy=0;entryPerimeter=0;" edge="1" parent="1" source="u76v-qcpaVpkkCXoTyXi-25" target="u76v-qcpaVpkkCXoTyXi-29">
          <mxGeometry relative="1" as="geometry">
            <mxPoint x="1256.9006399999998" y="1593.1399999999999" as="targetPoint" />
          </mxGeometry>
        </mxCell>
        <mxCell id="u76v-qcpaVpkkCXoTyXi-31" style="edgeStyle=orthogonalEdgeStyle;rounded=0;orthogonalLoop=1;jettySize=auto;html=1;entryX=0.054;entryY=0.157;entryDx=0;entryDy=0;entryPerimeter=0;" edge="1" parent="1" source="u76v-qcpaVpkkCXoTyXi-24" target="u76v-qcpaVpkkCXoTyXi-29">
          <mxGeometry relative="1" as="geometry" />
        </mxCell>
        <mxCell id="u76v-qcpaVpkkCXoTyXi-32" style="edgeStyle=orthogonalEdgeStyle;rounded=0;orthogonalLoop=1;jettySize=auto;html=1;entryX=-0.007;entryY=0.467;entryDx=0;entryDy=0;entryPerimeter=0;" edge="1" parent="1" source="u76v-qcpaVpkkCXoTyXi-26" target="u76v-qcpaVpkkCXoTyXi-29">
          <mxGeometry relative="1" as="geometry">
            <Array as="points">
              <mxPoint x="1120" y="1750" />
              <mxPoint x="1120" y="1703" />
            </Array>
          </mxGeometry>
        </mxCell>
        <mxCell id="u76v-qcpaVpkkCXoTyXi-33" value="RabbitMQ&lt;div&gt;Pedidos&lt;/div&gt;" style="text;html=1;align=center;verticalAlign=middle;whiteSpace=wrap;rounded=0;" vertex="1" parent="1">
          <mxGeometry x="767.5" y="1820" width="60" height="30" as="geometry" />
        </mxCell>
        <mxCell id="u76v-qcpaVpkkCXoTyXi-34" style="edgeStyle=orthogonalEdgeStyle;rounded=0;orthogonalLoop=1;jettySize=auto;html=1;" edge="1" parent="1" source="u76v-qcpaVpkkCXoTyXi-19" target="u76v-qcpaVpkkCXoTyXi-28">
          <mxGeometry relative="1" as="geometry">
            <Array as="points">
              <mxPoint x="700" y="1852" />
            </Array>
            <mxPoint x="767.5" y="1851.8199999999997" as="targetPoint" />
          </mxGeometry>
        </mxCell>
        <mxCell id="u76v-qcpaVpkkCXoTyXi-35" value="EnviaPagamento" style="edgeLabel;html=1;align=center;verticalAlign=middle;resizable=0;points=[];" vertex="1" connectable="0" parent="u76v-qcpaVpkkCXoTyXi-34">
          <mxGeometry x="0.7401" relative="1" as="geometry">
            <mxPoint x="-102" y="-32" as="offset" />
          </mxGeometry>
        </mxCell>
        <mxCell id="u76v-qcpaVpkkCXoTyXi-36" style="edgeStyle=orthogonalEdgeStyle;rounded=0;orthogonalLoop=1;jettySize=auto;html=1;entryX=0.471;entryY=0.923;entryDx=0;entryDy=0;entryPerimeter=0;" edge="1" parent="1" source="u76v-qcpaVpkkCXoTyXi-19" target="u76v-qcpaVpkkCXoTyXi-64">
          <mxGeometry relative="1" as="geometry">
            <Array as="points">
              <mxPoint x="660" y="1945" />
              <mxPoint x="1277" y="1945" />
            </Array>
            <mxPoint x="1260.261" y="1944.5880000000002" as="targetPoint" />
          </mxGeometry>
        </mxCell>
        <mxCell id="u76v-qcpaVpkkCXoTyXi-37" value="Grava Pedido" style="edgeLabel;html=1;align=center;verticalAlign=middle;resizable=0;points=[];" vertex="1" connectable="0" parent="u76v-qcpaVpkkCXoTyXi-36">
          <mxGeometry x="-0.3792" y="3" relative="1" as="geometry">
            <mxPoint y="-1" as="offset" />
          </mxGeometry>
        </mxCell>
        <mxCell id="u76v-qcpaVpkkCXoTyXi-38" value="" style="rounded=0;whiteSpace=wrap;html=1;" vertex="1" parent="1">
          <mxGeometry x="24" y="2110" width="1406" height="310" as="geometry" />
        </mxCell>
        <mxCell id="u76v-qcpaVpkkCXoTyXi-39" style="edgeStyle=orthogonalEdgeStyle;rounded=0;orthogonalLoop=1;jettySize=auto;html=1;" edge="1" parent="1" source="u76v-qcpaVpkkCXoTyXi-40" target="u76v-qcpaVpkkCXoTyXi-41">
          <mxGeometry relative="1" as="geometry" />
        </mxCell>
        <mxCell id="u76v-qcpaVpkkCXoTyXi-40" value="" style="verticalLabelPosition=bottom;html=1;verticalAlign=top;align=center;strokeColor=none;fillColor=#00BEF2;shape=mxgraph.azure.user;" vertex="1" parent="1">
          <mxGeometry x="60" y="2170" width="47.5" height="50" as="geometry" />
        </mxCell>
        <mxCell id="u76v-qcpaVpkkCXoTyXi-41" value="" style="dashed=0;outlineConnect=0;html=1;align=center;labelPosition=center;verticalLabelPosition=bottom;verticalAlign=top;shape=mxgraph.weblogos.chrome" vertex="1" parent="1">
          <mxGeometry x="150" y="2210" width="60" height="52.7" as="geometry" />
        </mxCell>
        <mxCell id="u76v-qcpaVpkkCXoTyXi-42" value="" style="rounded=1;whiteSpace=wrap;html=1;" vertex="1" parent="1">
          <mxGeometry x="250" y="2130" width="880" height="250" as="geometry" />
        </mxCell>
        <mxCell id="u76v-qcpaVpkkCXoTyXi-43" value="" style="rounded=1;whiteSpace=wrap;html=1;" vertex="1" parent="1">
          <mxGeometry x="1158.5" y="2130" width="240" height="250" as="geometry" />
        </mxCell>
        <mxCell id="u76v-qcpaVpkkCXoTyXi-44" value="Consultar Pedido" style="text;html=1;align=center;verticalAlign=middle;whiteSpace=wrap;rounded=0;" vertex="1" parent="1">
          <mxGeometry x="30" y="2120" width="130" height="30" as="geometry" />
        </mxCell>
        <mxCell id="u76v-qcpaVpkkCXoTyXi-45" value="pedido-receiver" style="rounded=1;whiteSpace=wrap;html=1;" vertex="1" parent="1">
          <mxGeometry x="310" y="2206.35" width="120" height="133.65" as="geometry" />
        </mxCell>
        <mxCell id="u76v-qcpaVpkkCXoTyXi-46" value="Camada de serviço" style="text;html=1;align=center;verticalAlign=middle;whiteSpace=wrap;rounded=0;" vertex="1" parent="1">
          <mxGeometry x="330" y="2140" width="60" height="30" as="geometry" />
        </mxCell>
        <mxCell id="u76v-qcpaVpkkCXoTyXi-47" style="edgeStyle=orthogonalEdgeStyle;rounded=0;orthogonalLoop=1;jettySize=auto;html=1;" edge="1" parent="1" source="u76v-qcpaVpkkCXoTyXi-41" target="u76v-qcpaVpkkCXoTyXi-45">
          <mxGeometry relative="1" as="geometry">
            <Array as="points">
              <mxPoint x="300" y="2236" />
              <mxPoint x="300" y="2236" />
            </Array>
          </mxGeometry>
        </mxCell>
        <mxCell id="u76v-qcpaVpkkCXoTyXi-48" value="GET&lt;div&gt;id_produto&lt;/div&gt;" style="text;html=1;align=left;verticalAlign=top;whiteSpace=wrap;rounded=0;" vertex="1" parent="1">
          <mxGeometry x="220" y="2194.05" width="70" height="40" as="geometry" />
        </mxCell>
        <mxCell id="u76v-qcpaVpkkCXoTyXi-49" style="edgeStyle=orthogonalEdgeStyle;rounded=0;orthogonalLoop=1;jettySize=auto;html=1;" edge="1" parent="1" source="u76v-qcpaVpkkCXoTyXi-51" target="u76v-qcpaVpkkCXoTyXi-55">
          <mxGeometry relative="1" as="geometry">
            <Array as="points">
              <mxPoint x="770" y="2230" />
              <mxPoint x="770" y="2230" />
            </Array>
          </mxGeometry>
        </mxCell>
        <mxCell id="u76v-qcpaVpkkCXoTyXi-50" style="edgeStyle=orthogonalEdgeStyle;rounded=0;orthogonalLoop=1;jettySize=auto;html=1;" edge="1" parent="1" source="u76v-qcpaVpkkCXoTyXi-51" target="u76v-qcpaVpkkCXoTyXi-45">
          <mxGeometry relative="1" as="geometry">
            <Array as="points">
              <mxPoint x="580" y="2273" />
              <mxPoint x="580" y="2273" />
            </Array>
          </mxGeometry>
        </mxCell>
        <mxCell id="u76v-qcpaVpkkCXoTyXi-51" value="pedido-service" style="rounded=1;whiteSpace=wrap;html=1;" vertex="1" parent="1">
          <mxGeometry x="621.22" y="2197.23" width="120" height="112.77" as="geometry" />
        </mxCell>
        <mxCell id="u76v-qcpaVpkkCXoTyXi-52" value="Mongo" style="points=[];aspect=fixed;html=1;align=center;shadow=0;dashed=0;fillColor=#FF6A00;strokeColor=none;shape=mxgraph.alibaba_cloud.mongodb;" vertex="1" parent="1">
          <mxGeometry x="1239.25" y="2206.35" width="78.5" height="78.5" as="geometry" />
        </mxCell>
        <mxCell id="u76v-qcpaVpkkCXoTyXi-53" style="edgeStyle=orthogonalEdgeStyle;rounded=0;orthogonalLoop=1;jettySize=auto;html=1;" edge="1" parent="1" source="u76v-qcpaVpkkCXoTyXi-45" target="u76v-qcpaVpkkCXoTyXi-51">
          <mxGeometry relative="1" as="geometry">
            <mxPoint x="507" y="2229.05" as="targetPoint" />
            <Array as="points">
              <mxPoint x="470" y="2230" />
              <mxPoint x="470" y="2230" />
            </Array>
          </mxGeometry>
        </mxCell>
        <mxCell id="u76v-qcpaVpkkCXoTyXi-54" value="ConsultarPedido" style="text;html=1;align=center;verticalAlign=middle;whiteSpace=wrap;rounded=0;" vertex="1" parent="1">
          <mxGeometry x="471" y="2206.35" width="119" height="30" as="geometry" />
        </mxCell>
        <mxCell id="u76v-qcpaVpkkCXoTyXi-55" value="pagamento-service" style="rounded=1;whiteSpace=wrap;html=1;" vertex="1" parent="1">
          <mxGeometry x="860" y="2197.23" width="120" height="63.65" as="geometry" />
        </mxCell>
        <mxCell id="u76v-qcpaVpkkCXoTyXi-56" style="edgeStyle=orthogonalEdgeStyle;rounded=0;orthogonalLoop=1;jettySize=auto;html=1;entryX=0.106;entryY=0.24;entryDx=0;entryDy=0;entryPerimeter=0;" edge="1" parent="1" source="u76v-qcpaVpkkCXoTyXi-55" target="u76v-qcpaVpkkCXoTyXi-52">
          <mxGeometry relative="1" as="geometry">
            <Array as="points">
              <mxPoint x="1040" y="2225" />
              <mxPoint x="1040" y="2225" />
            </Array>
          </mxGeometry>
        </mxCell>
        <mxCell id="u76v-qcpaVpkkCXoTyXi-57" value="Tabela Pagamento" style="text;html=1;align=center;verticalAlign=middle;whiteSpace=wrap;rounded=0;" vertex="1" parent="1">
          <mxGeometry x="990" y="2200" width="130" height="30" as="geometry" />
        </mxCell>
        <mxCell id="u76v-qcpaVpkkCXoTyXi-58" style="edgeStyle=orthogonalEdgeStyle;rounded=0;orthogonalLoop=1;jettySize=auto;html=1;entryX=0.106;entryY=0.568;entryDx=0;entryDy=0;entryPerimeter=0;" edge="1" parent="1" source="u76v-qcpaVpkkCXoTyXi-51" target="u76v-qcpaVpkkCXoTyXi-52">
          <mxGeometry relative="1" as="geometry">
            <Array as="points">
              <mxPoint x="660" y="2320" />
              <mxPoint x="1200" y="2320" />
              <mxPoint x="1200" y="2251" />
            </Array>
          </mxGeometry>
        </mxCell>
        <mxCell id="u76v-qcpaVpkkCXoTyXi-59" value="Grava Pedido" style="edgeLabel;html=1;align=center;verticalAlign=middle;resizable=0;points=[];" connectable="0" vertex="1" parent="u76v-qcpaVpkkCXoTyXi-58">
          <mxGeometry x="-0.3792" y="3" relative="1" as="geometry">
            <mxPoint y="-1" as="offset" />
          </mxGeometry>
        </mxCell>
        <mxCell id="u76v-qcpaVpkkCXoTyXi-60" value="Consulta Status Pagamento" style="text;html=1;align=center;verticalAlign=middle;whiteSpace=wrap;rounded=0;" vertex="1" parent="1">
          <mxGeometry x="767.5" y="2194.0499999999997" width="60" height="30" as="geometry" />
        </mxCell>
        <mxCell id="u76v-qcpaVpkkCXoTyXi-61" value="Tabela Pedido" style="text;html=1;align=center;verticalAlign=middle;whiteSpace=wrap;rounded=0;" vertex="1" parent="1">
          <mxGeometry x="780" y="1920" width="130" height="30" as="geometry" />
        </mxCell>
        <mxCell id="u76v-qcpaVpkkCXoTyXi-62" value="Tabela Pagamento" style="text;html=1;align=center;verticalAlign=middle;whiteSpace=wrap;rounded=0;" vertex="1" parent="1">
          <mxGeometry x="930" y="2290" width="130" height="30" as="geometry" />
        </mxCell>
        <mxCell id="u76v-qcpaVpkkCXoTyXi-63" value="Devolve status do pedido" style="text;html=1;align=center;verticalAlign=middle;whiteSpace=wrap;rounded=0;" vertex="1" parent="1">
          <mxGeometry x="451" y="2250" width="149" height="30" as="geometry" />
        </mxCell>
        <mxCell id="u76v-qcpaVpkkCXoTyXi-64" value="Mongo" style="points=[];aspect=fixed;html=1;align=center;shadow=0;dashed=0;fillColor=#FF6A00;strokeColor=none;shape=mxgraph.alibaba_cloud.mongodb;" vertex="1" parent="1">
          <mxGeometry x="1240" y="1812.57" width="78.5" height="78.5" as="geometry" />
        </mxCell>
      </root>
    </mxGraphModel>
  </diagram>
</mxfile>
